<svg width="500" height="149" viewBox="0 0 500 149" fill="none" xmlns="http://www.w3.org/2000/svg">
<path d="M481.48 148H18.52C8.14 148 0 139.868 0 129.497V18.5025C0 8.13231 8.14 0 18.52 0H481.48C491.86 0 500 8.13231 500 18.5025V129.517C500 139.868 491.86 148 481.48 148Z" fill="black"/>
<path d="M481.48 2.9572C490 2.9572 497.04 9.99055 497.04 18.5025V129.517C497.04 138.029 490 145.063 481.48 145.063H18.52C10 145.063 2.96 138.029 2.96 129.517V18.5025C2.96 9.99055 10 2.9572 18.52 2.9572H481.48ZM481.48 0H18.52C8.14 0 0 8.51195 0 18.5025V129.517C0 139.888 8.14 148.02 18.52 148.02H481.48C491.86 148.02 500 139.888 500 129.517V18.5025C500 8.51195 491.86 0 481.48 0Z" fill="#A6A6A6"/>
<path d="M175.56 37.7443C175.56 40.7015 174.82 43.2991 172.96 45.1373C170.74 47.3552 168.14 48.4742 164.82 48.4742C161.48 48.4742 158.9 47.3552 156.68 45.1373C154.46 42.9194 153.34 40.3219 153.34 37.005C153.34 33.6882 154.46 31.0906 156.68 28.8727C158.9 26.6548 161.5 25.5359 164.82 25.5359C166.3 25.5359 167.78 25.9155 169.26 26.6548C170.74 27.3941 171.86 28.1334 172.6 29.2524L170.74 31.1106C169.26 29.2524 167.4 28.5131 164.82 28.5131C162.6 28.5131 160.38 29.2524 158.9 31.1106C157.04 32.5892 156.3 34.8071 156.3 37.4046C156.3 40.0022 157.04 42.2201 158.9 43.6987C160.76 45.1773 162.6 46.2962 164.82 46.2962C167.42 46.2962 169.26 45.5569 171.12 43.6987C172.24 42.5797 172.98 41.1011 172.98 39.2629H164.84V36.3057H175.58L175.56 37.7443ZM192.6 28.4931H182.6V35.5264H191.86V38.124H182.6V45.1573H192.6V48.1145H179.64V25.8955H192.6V28.4931ZM204.82 48.0945H201.86V28.4931H195.56V25.8955H211.12V28.4931H204.82V48.0945ZM221.86 48.0945V25.8955H224.82V48.0945H221.86ZM237.4 48.0945H234.44V28.4931H228.14V25.8955H243.32V28.4931H237.02V48.0945H237.4ZM272.6 45.1373C270.38 47.3552 267.78 48.4742 264.46 48.4742C261.12 48.4742 258.54 47.3552 256.32 45.1373C254.1 42.9194 252.98 40.3219 252.98 37.005C252.98 33.6882 254.1 31.0906 256.32 28.8727C258.54 26.6548 261.14 25.5359 264.46 25.5359C267.78 25.5359 270.38 26.6548 272.6 28.8727C274.82 31.0906 275.94 33.6882 275.94 37.005C275.94 40.3219 274.82 42.9194 272.6 45.1373ZM258.52 43.2991C260 44.7777 262.22 45.8966 264.44 45.8966C266.66 45.8966 268.88 45.1573 270.36 43.2991C271.84 41.8205 272.96 39.6026 272.96 37.005C272.96 34.4075 272.22 32.1896 270.36 30.711C268.88 29.2324 266.66 28.1134 264.44 28.1134C262.22 28.1134 260 28.8527 258.52 30.711C257.04 32.1896 255.92 34.4075 255.92 37.005C255.92 39.5826 256.66 41.8205 258.52 43.2991ZM280 48.0945V25.8955H283.34L294.08 43.2791V25.8955H297.04V48.0945H294.08L282.6 29.9717V48.0945H280Z" fill="white" stroke="white" stroke-width="0.2" stroke-miterlimit="10"/>
<path d="M252.22 80.6636C243.34 80.6636 236.3 87.3173 236.3 96.5685C236.3 105.44 243.34 112.473 252.22 112.473C261.1 112.473 268.14 105.82 268.14 96.5685C268.14 86.9576 261.12 80.6636 252.22 80.6636ZM252.22 105.82C247.4 105.82 243.34 101.744 243.34 96.2089C243.34 90.6741 247.42 86.598 252.22 86.598C257.02 86.598 261.1 90.2945 261.1 96.2089C261.12 101.764 257.04 105.82 252.22 105.82ZM217.78 80.6636C208.9 80.6636 201.86 87.3173 201.86 96.5685C201.86 105.44 208.9 112.473 217.78 112.473C226.66 112.473 233.7 105.82 233.7 96.5685C233.7 86.9576 226.66 80.6636 217.78 80.6636ZM217.78 105.82C212.96 105.82 208.9 101.744 208.9 96.2089C208.9 90.6741 212.98 86.598 217.78 86.598C222.6 86.598 226.66 90.2945 226.66 96.2089C226.66 101.764 222.6 105.82 217.78 105.82ZM176.66 85.479V92.1327H192.6C192.22 95.8292 190.74 98.7864 188.9 100.645C186.68 102.863 182.98 105.46 176.68 105.46C166.68 105.46 159.28 97.6875 159.28 87.6969C159.28 77.7064 167.06 69.9337 176.68 69.9337C181.86 69.9337 185.94 72.1516 188.9 74.7492L193.72 69.9337C189.64 66.2372 184.46 63.28 177.06 63.28C163.72 63.28 152.24 74.3895 152.24 87.6969C152.24 101.004 163.72 112.114 177.06 112.114C184.46 112.114 189.66 109.896 194.1 105.08C198.54 100.645 200.02 94.3506 200.02 89.5352C200.02 88.0566 200.02 86.578 199.64 85.459L176.66 85.479ZM344.82 90.6541C343.34 86.9576 339.64 80.6636 331.48 80.6636C323.34 80.6636 316.66 86.9576 316.66 96.5685C316.66 105.44 323.32 112.473 332.22 112.473C339.26 112.473 343.7 108.038 345.18 105.44L340 101.744C338.14 104.341 335.92 106.179 332.22 106.179C328.52 106.179 326.3 104.701 324.44 101.364L345.56 92.4924L344.82 90.6541ZM323.34 95.8292C323.34 89.9148 328.16 86.578 331.48 86.578C334.08 86.578 336.66 88.0566 337.4 89.9148L323.34 95.8292ZM305.92 111.015H312.96V64.7586H305.92V111.015ZM294.82 84.0004C292.96 82.1422 290 80.3039 286.3 80.3039C278.52 80.3039 271.12 87.3373 271.12 96.2089C271.12 105.08 278.16 111.754 286.3 111.754C290 111.754 292.96 109.896 294.44 108.058H294.82V110.276C294.82 116.19 291.48 119.527 286.3 119.527C282.22 119.527 279.26 116.57 278.52 113.972L272.6 116.57C274.46 120.646 278.9 125.821 286.68 125.821C294.82 125.821 301.5 121.005 301.5 109.536V81.4029H294.84L294.82 84.0004ZM286.66 105.82C281.84 105.82 277.78 101.744 277.78 96.2089C277.78 90.6741 281.86 86.598 286.66 86.598C291.46 86.598 295.18 90.6741 295.18 96.2089C295.18 101.744 291.48 105.82 286.66 105.82ZM377.04 64.7586H360.38V111.015H367.42V93.6313H377.04C384.82 93.6313 392.22 88.0766 392.22 79.205C392.22 70.3334 384.82 64.7586 377.04 64.7586ZM377.4 86.9576H367.4V71.0527H377.4C382.58 71.0527 385.54 75.4885 385.54 78.8253C385.18 82.8815 382.22 86.9576 377.4 86.9576ZM420 80.3039C414.82 80.3039 409.62 82.5218 407.78 87.3373L414.08 89.9348C415.56 87.3373 417.78 86.598 420.38 86.598C424.08 86.598 427.42 88.8159 427.78 92.5124V92.892C426.66 92.1527 423.7 91.0338 420.74 91.0338C414.08 91.0338 407.4 94.7303 407.4 101.404C407.4 107.698 412.96 111.774 418.88 111.774C423.7 111.774 425.92 109.556 427.76 107.338H428.14V111.035H434.8V93.2717C434.08 85.0994 427.78 80.3039 420 80.3039ZM419.26 105.82C417.04 105.82 413.7 104.701 413.7 101.744C413.7 98.0471 417.78 96.9282 421.1 96.9282C424.06 96.9282 425.54 97.6675 427.4 98.4068C426.66 102.863 422.96 105.82 419.26 105.82ZM458.14 81.4029L450.36 101.384H449.98L441.84 81.4029H434.44L446.66 109.516L439.62 125.062H446.66L465.54 81.4029H458.14V81.4029ZM395.92 111.015H402.96V64.7586H395.92V111.015Z" fill="white"/>
<path d="M38.52 27.7537C37.4 28.8726 37.04 30.7109 37.04 32.9288V114.711C37.04 116.929 37.78 118.788 38.9 119.886L39.28 120.266L85.2 74.3895V73.6502L38.52 27.7537Z" fill="url(#paint0_linear)"/>
<path d="M100 89.9148L84.8203 74.7492V73.6303L100 58.4646L100.38 58.8442L118.52 69.2144C123.7 72.1716 123.7 76.9871 118.52 79.9443L100 89.9148Z" fill="url(#paint1_linear)"/>
<path d="M100.38 89.5353L84.82 73.99L38.52 120.266C40.38 122.124 42.96 122.124 46.3 120.646L100.38 89.5353Z" fill="url(#paint2_linear)"/>
<path d="M100.38 58.4646L46.3 27.7537C42.96 25.8955 40.38 26.2751 38.52 28.1333L84.82 74.0099L100.38 58.4646Z" fill="url(#paint3_linear)"/>
<path opacity="0.2" d="M100 89.1758L46.3 119.507C43.34 121.365 40.74 120.986 38.9 119.507L38.52 119.887L38.9 120.266C40.76 121.745 43.34 122.125 46.3 120.266L100 89.1758Z" fill="black"/>
<path opacity="0.12" d="M38.52 119.507C37.4 118.388 37.04 116.55 37.04 114.332V114.712C37.04 116.929 37.78 118.788 38.9 119.887V119.507H38.52ZM118.52 78.8055L100 89.1757L100.38 89.5553L118.52 79.1851C121.12 77.7065 122.22 75.8483 122.22 74.01C122.22 75.8483 120.74 77.3269 118.52 78.8055Z" fill="black"/>
<path opacity="0.25" d="M46.3 28.1133L118.52 69.1944C120.74 70.673 122.22 72.1516 122.22 74.0099C122.22 72.1516 121.1 70.3134 118.52 68.8348L46.3 27.7536C41.12 24.7964 37.04 27.0143 37.04 32.9287V33.3084C37.04 27.7536 41.12 25.1561 46.3 28.1133Z" fill="white"/>
<defs>
<linearGradient id="paint0_linear" x1="80.7207" y1="32.2087" x2="18.62" y2="94.3641" gradientUnits="userSpaceOnUse">
<stop stop-color="#00A0FF"/>
<stop offset="0.007" stop-color="#00A1FF"/>
<stop offset="0.26" stop-color="#00BEFF"/>
<stop offset="0.512" stop-color="#00D2FF"/>
<stop offset="0.76" stop-color="#00DFFF"/>
<stop offset="1" stop-color="#00E3FF"/>
</linearGradient>
<linearGradient id="paint1_linear" x1="125.308" y1="74.1863" x2="35.69" y2="74.1863" gradientUnits="userSpaceOnUse">
<stop stop-color="#FFE000"/>
<stop offset="0.409" stop-color="#FFBD00"/>
<stop offset="0.775" stop-color="#FFA500"/>
<stop offset="1" stop-color="#FF9C00"/>
</linearGradient>
<linearGradient id="paint2_linear" x1="91.9063" y1="82.4545" x2="7.69714" y2="166.743" gradientUnits="userSpaceOnUse">
<stop stop-color="#FF3A44"/>
<stop offset="1" stop-color="#C31162"/>
</linearGradient>
<linearGradient id="paint3_linear" x1="26.8915" y1="0.779968" x2="64.4966" y2="38.4207" gradientUnits="userSpaceOnUse">
<stop stop-color="#32A071"/>
<stop offset="0.069" stop-color="#2DA771"/>
<stop offset="0.476" stop-color="#15CF74"/>
<stop offset="0.801" stop-color="#06E775"/>
<stop offset="1" stop-color="#00F076"/>
</linearGradient>
</defs>
</svg>
